<svg height="480pt" viewBox="-40 0 480 480" width="480pt" xmlns="http://www.w3.org/2000/svg"><path d="m144 416c-4.417969 0-8-3.582031-8-8v-296c0-4.417969 3.582031-8 8-8s8 3.582031 8 8v296c0 4.417969-3.582031 8-8 8zm0 0" fill="#4a4a4a"/><path d="m112 160h64v208h-64zm0 0" fill="#ee638c"/><path d="m256 384c-4.417969 0-8-3.582031-8-8v-296c0-4.417969 3.582031-8 8-8s8 3.582031 8 8v296c0 4.417969-3.582031 8-8 8zm0 0" fill="#4a4a4a"/><path d="m224 128h64v208h-64zm0 0" fill="#8cb28c"/><path d="m368 480c-4.417969 0-8-3.582031-8-8v-296c0-4.417969 3.582031-8 8-8s8 3.582031 8 8v296c0 4.417969-3.582031 8-8 8zm0 0" fill="#4a4a4a"/><path d="m336 224h64v208h-64zm0 0" fill="#ee638c"/><path d="m32 312c-4.417969 0-8-3.582031-8-8v-296c0-4.417969 3.582031-8 8-8s8 3.582031 8 8v296c0 4.417969-3.582031 8-8 8zm0 0" fill="#4a4a4a"/><path d="m0 56h64v208h-64zm0 0" fill="#8cb28c"/></svg>