<?xml version="1.0" encoding="UTF-8"?>
<!DOCTYPE svg PUBLIC "-//W3C//DTD SVG 1.1//EN" "http://www.w3.org/Graphics/SVG/1.1/DTD/svg11.dtd">
<svg version="1.1" xmlns="http://www.w3.org/2000/svg" xmlns:xlink="http://www.w3.org/1999/xlink" x="0" y="0" width="244" height="244" viewBox="0, 0, 244, 244">
  <g id="Layer_1">
    <g>
      <path d="M122,244 C54.621,244 0,189.379 0,122 C0,54.621 54.621,0 122,0 C189.379,0 244,54.621 244,122 C244,189.379 189.379,244 122,244 z" fill="#FFFFFF"/>
      <path d="M122,240 C56.83,240 4,187.17 4,122 C4,56.83 56.83,4 122,4 C187.17,4 240,56.83 240,122 C240,187.17 187.17,240 122,240 z" fill="#000000"/>
    </g>
    <g>
      <path d="M122.869,63.83 C122.232,63.844 121.628,63.665 121.073,63.361 C119.429,62.402 118.873,60.292 119.831,58.647 C120.464,57.576 121.643,56.903 122.891,56.94 L122.882,56.913 C126.698,57.055 130.187,55.059 132.137,51.808 C134.041,48.527 134.03,44.199 131.883,41.02 L131.901,41.016 C131.422,40.223 131.303,39.228 131.555,38.34 C131.635,38.058 131.755,37.797 131.895,37.541 C132.854,35.896 134.964,35.34 136.609,36.299 C138.253,37.257 138.81,39.368 137.851,41.012 C137.755,41.171 137.656,41.329 137.532,41.468 C134.707,46.432 136.416,52.565 141.282,55.484 C142.92,56.426 144.796,56.932 146.687,56.883 C147.462,56.748 148.245,56.938 148.925,57.312 C150.57,58.27 151.126,60.381 150.167,62.025 C149.209,63.67 147.098,64.226 145.454,63.267 C144.908,62.936 144.418,62.469 144.137,61.887 L144.106,61.919 C143.217,60.194 141.829,58.799 140.172,57.805 C135.259,54.941 128.953,56.602 126.089,61.516 C126.046,61.593 126.07,61.551 126.018,61.642 C125.961,61.811 125.872,61.963 125.787,62.118 C125.101,63.233 124.157,63.744 122.869,63.829 L122.869,63.83 z M134.999,40.876 C135.864,40.876 136.565,40.175 136.565,39.31 C136.565,38.446 135.864,37.745 134.999,37.745 C134.135,37.745 133.434,38.446 133.434,39.311 C133.434,40.175 134.135,40.876 134.999,40.876 z M147.329,61.975 C148.194,61.975 148.895,61.274 148.895,60.409 C148.895,59.544 148.194,58.843 147.329,58.843 C146.464,58.843 145.763,59.544 145.764,60.409 C145.763,61.274 146.465,61.975 147.329,61.975 L147.329,61.975 z M122.708,61.975 C123.572,61.975 124.273,61.274 124.273,60.409 C124.274,59.544 123.572,58.843 122.708,58.843 C121.843,58.843 121.142,59.544 121.142,60.409 C121.142,61.274 121.843,61.975 122.708,61.975 z" fill="#FBE700"/>
      <path d="M110.522,42.86 C109.884,42.874 109.281,42.696 108.726,42.391 C107.082,41.433 106.526,39.322 107.484,37.678 C108.117,36.606 109.295,35.933 110.544,35.971 L110.535,35.944 C114.35,36.085 117.839,34.089 119.79,30.838 C121.693,27.557 121.683,23.229 119.536,20.051 L119.554,20.046 C119.075,19.254 118.956,18.259 119.208,17.37 C119.288,17.088 119.408,16.827 119.548,16.571 C120.507,14.927 122.617,14.371 124.262,15.329 C125.906,16.288 126.462,18.398 125.504,20.043 C125.408,20.201 125.309,20.36 125.185,20.498 C122.36,25.462 124.069,31.595 128.935,34.514 C130.573,35.456 132.449,35.963 134.34,35.913 C135.115,35.779 135.898,35.968 136.578,36.342 C138.223,37.301 138.779,39.411 137.82,41.056 C136.862,42.7 134.751,43.256 133.107,42.298 C132.56,41.967 132.071,41.5 131.79,40.918 L131.759,40.95 C130.869,39.224 129.482,37.829 127.825,36.835 C122.911,33.971 116.606,35.633 113.742,40.547 C113.699,40.623 113.722,40.581 113.671,40.672 C113.614,40.842 113.525,40.994 113.44,41.149 C112.754,42.264 111.809,42.774 110.522,42.86 L110.522,42.86 z M122.652,19.907 C123.517,19.907 124.218,19.206 124.218,18.341 C124.218,17.476 123.517,16.775 122.652,16.775 C121.787,16.775 121.086,17.476 121.086,18.341 C121.086,19.206 121.787,19.907 122.652,19.907 z M134.982,41.005 C135.847,41.005 136.548,40.304 136.548,39.44 C136.548,38.575 135.847,37.874 134.982,37.874 C134.117,37.874 133.416,38.575 133.416,39.44 C133.416,40.304 134.117,41.005 134.982,41.005 L134.982,41.005 z M110.36,41.005 C111.225,41.005 111.926,40.304 111.926,39.44 C111.926,38.575 111.225,37.874 110.36,37.874 C109.496,37.874 108.795,38.575 108.795,39.44 C108.795,40.304 109.496,41.005 110.36,41.005 z" fill="#0290FC"/>
      <path d="M107.366,37.579 C107.863,36.85 107.583,37.187 108.206,36.569 L108.217,36.561 L108.52,36.358 C109.629,35.738 110.846,35.796 111.956,36.369 C113.6,37.328 114.157,39.438 113.198,41.083 C113.102,41.241 113.003,41.4 112.88,41.539 C112.502,42.241 112.7,41.845 112.304,42.734 C111.403,42.639 111.822,42.665 111.049,42.642 C110.961,42.643 111.009,42.642 110.905,42.643 C110.729,42.678 110.553,42.678 110.376,42.681 C109.068,42.645 108.153,42.082 107.435,41.01 C107.104,40.465 106.957,39.853 106.944,39.22 C106.933,38.568 107.118,38.16 107.366,37.579 z M108.91,38.473 C108.724,39.168 108.74,38.852 108.782,39.412 C108.814,40.204 109.284,40.687 110.031,40.915 C110.132,40.946 110.241,40.936 110.346,40.947 C111.211,40.947 111.912,40.246 111.912,39.381 C111.9,39.146 111.914,39.273 111.859,38.999 C111.868,38.775 111.772,38.572 111.673,38.377 C111.24,37.628 110.283,37.372 109.534,37.804 C109.112,38.108 109.341,37.905 108.91,38.473 z" fill="#06D9FF"/>
      <path d="M107.435,41.01 C107.104,40.465 106.957,39.853 106.944,39.22 C106.952,37.317 108.501,35.78 110.405,35.788 C111.649,35.8 112.821,36.485 113.413,37.585 L113.432,37.563 C115.217,40.938 118.69,42.962 122.481,43.026 C126.274,43.033 130.016,40.86 131.696,37.412 L131.709,37.425 C132.155,36.614 132.958,36.014 133.853,35.788 C134.138,35.716 134.423,35.689 134.715,35.683 C136.619,35.691 138.156,37.24 138.148,39.144 C138.14,41.047 136.59,42.584 134.687,42.576 C134.502,42.572 134.315,42.566 134.133,42.528 C128.421,42.563 123.965,47.11 123.869,52.783 C123.873,54.673 124.372,56.55 125.36,58.164 C125.864,58.768 126.092,59.54 126.108,60.316 C126.1,62.22 124.551,63.757 122.647,63.749 C120.744,63.741 119.207,62.191 119.215,60.288 C119.228,59.649 119.388,58.992 119.752,58.458 L119.708,58.447 C120.758,56.814 121.272,54.914 121.304,52.983 C121.328,47.295 116.736,42.666 111.049,42.642 C110.961,42.643 111.009,42.642 110.905,42.643 C110.729,42.678 110.553,42.678 110.376,42.681 C109.068,42.645 108.153,42.082 107.435,41.01 L107.435,41.01 z M133.379,40.039 C133.811,40.787 134.769,41.044 135.517,40.611 C136.266,40.179 136.523,39.222 136.091,38.473 C135.658,37.724 134.701,37.467 133.952,37.9 C133.203,38.332 132.946,39.29 133.379,40.039 z M121.272,61.266 C121.704,62.014 122.662,62.271 123.411,61.839 C124.159,61.407 124.416,60.449 123.984,59.7 C123.551,58.951 122.594,58.695 121.845,59.127 C121.096,59.559 120.839,60.517 121.272,61.266 L121.272,61.266 z M108.961,39.943 C109.393,40.692 110.351,40.948 111.1,40.516 C111.849,40.084 112.105,39.126 111.673,38.377 C111.24,37.628 110.283,37.372 109.534,37.804 C108.785,38.236 108.529,39.194 108.961,39.943 z" fill="#FD2400"/>
      <path d="M98.216,63.9 C97.579,63.914 96.975,63.736 96.42,63.431 C94.776,62.473 94.22,60.362 95.178,58.718 C95.811,57.646 96.99,56.973 98.238,57.011 L98.229,56.984 C102.044,57.126 105.534,55.129 107.484,51.878 C109.387,48.597 109.377,44.269 107.23,41.091 L107.248,41.087 C106.769,40.294 106.65,39.299 106.902,38.41 C106.982,38.128 107.102,37.868 107.242,37.612 C108.201,35.967 110.311,35.411 111.956,36.369 C113.6,37.328 114.157,39.438 113.198,41.083 C113.102,41.241 113.003,41.4 112.88,41.539 C110.054,46.502 111.763,52.635 116.629,55.554 C118.267,56.496 120.143,57.003 122.034,56.954 C122.809,56.819 123.592,57.009 124.272,57.382 C125.917,58.341 126.473,60.451 125.514,62.096 C124.556,63.74 122.445,64.296 120.801,63.338 C120.255,63.007 119.765,62.54 119.484,61.958 L119.453,61.99 C118.564,60.265 117.176,58.869 115.519,57.875 C110.605,55.011 104.3,56.673 101.436,61.587 C101.393,61.663 101.417,61.621 101.365,61.712 C101.308,61.882 101.219,62.034 101.134,62.189 C100.448,63.304 99.504,63.814 98.216,63.9 L98.216,63.9 z M110.346,40.947 C111.211,40.947 111.912,40.246 111.912,39.381 C111.912,38.516 111.211,37.815 110.346,37.815 C109.482,37.815 108.781,38.516 108.781,39.381 C108.781,40.246 109.482,40.947 110.346,40.947 z M122.676,62.045 C123.541,62.045 124.242,61.344 124.242,60.48 C124.242,59.615 123.541,58.914 122.676,58.914 C121.811,58.914 121.11,59.615 121.11,60.48 C121.11,61.344 121.811,62.045 122.676,62.045 L122.676,62.045 z M98.055,62.045 C98.919,62.045 99.62,61.344 99.62,60.48 C99.62,59.615 98.919,58.914 98.055,58.914 C97.19,58.914 96.489,59.615 96.489,60.48 C96.489,61.344 97.19,62.045 98.055,62.045 z" fill="#06D9FF"/>
      <path d="M119.88,58.677 C120.513,57.606 121.692,56.933 122.94,56.97 L122.931,56.943 C124.011,56.946 123.406,56.969 124.742,56.833 C125.155,57.794 124.929,57.342 125.409,58.194 C125.913,58.798 126.14,59.571 126.157,60.346 C126.149,62.25 124.6,63.787 122.696,63.779 C122.066,63.79 121.657,63.613 121.097,63.374 C119.442,62.366 119.015,60.35 119.88,58.677 z M121.269,59.826 C121.059,60.343 121.072,60.809 121.32,61.296 C121.753,62.045 122.71,62.301 123.459,61.869 C123.76,61.652 123.653,61.768 123.813,61.556 C124.217,61.222 124.273,60.927 124.322,60.439 C124.322,59.574 123.621,58.873 122.757,58.873 C122.408,58.882 122.044,58.978 121.791,59.23 C121.575,59.386 121.675,59.291 121.5,59.522 C121.451,59.571 121.466,59.546 121.446,59.594 L121.269,59.826 z" fill="#FBE700"/>
    </g>
    <g>
      <path d="M72.5,85 L174.5,85 C179.747,85 184,89.253 184,94.5 L184,94.5 C184,99.747 179.747,104 174.5,104 L72.5,104 C67.253,104 63,99.747 63,94.5 L63,94.5 C63,89.253 67.253,85 72.5,85 z" fill="#FFFFFF"/>
      <path d="M72.5,121.5 L174.5,121.5 C179.747,121.5 184,125.753 184,131 L184,131 C184,136.247 179.747,140.5 174.5,140.5 L72.5,140.5 C67.253,140.5 63,136.247 63,131 L63,131 C63,125.753 67.253,121.5 72.5,121.5 z" fill="#FFFFFF"/>
      <path d="M72.5,158 L174.5,158 C179.747,158 184,162.253 184,167.5 L184,167.5 C184,172.747 179.747,177 174.5,177 L72.5,177 C67.253,177 63,172.747 63,167.5 L63,167.5 C63,162.253 67.253,158 72.5,158 z" fill="#FFFFFF"/>
    </g>
  </g>
</svg>
