<?xml version="1.0" encoding="UTF-8"?>
<!DOCTYPE svg PUBLIC "-//W3C//DTD SVG 1.1//EN" "http://www.w3.org/Graphics/SVG/1.1/DTD/svg11.dtd">
<svg version="1.1" xmlns="http://www.w3.org/2000/svg" xmlns:xlink="http://www.w3.org/1999/xlink" x="0" y="0" width="420.115" height="51.817" viewBox="0, 0, 420.115, 51.817">
  <g id="Layer_1">
    <path d="M63.156,37.869 Q64.538,37.869 65.464,37.633 Q66.391,37.397 66.947,36.74 Q67.503,36.083 67.705,34.938 Q67.907,33.792 67.907,32.007 L79.699,32.007 L79.699,50.369 L31.689,50.369 L31.689,37.869 Q34.654,37.869 35.934,37.077 Q37.214,36.286 37.214,34.096 L37.214,17.048 Q37.214,14.824 35.934,14.032 Q34.654,13.241 31.689,13.241 L31.689,0.741 L79.699,0.741 L79.699,19.103 L67.907,19.103 Q67.907,17.317 67.705,16.172 Q67.503,15.026 66.947,14.386 Q66.391,13.746 65.464,13.493 Q64.538,13.241 63.156,13.241 L57.092,13.241 L57.092,22.203 L67.84,22.203 L67.84,28.166 L57.092,28.166 L57.092,37.869 z" fill="#000000"/>
    <path d="M190.132,0.741 L190.132,20.484 L179.048,20.484 Q179.048,18.227 178.93,16.559 Q178.812,14.892 178.407,13.864 Q178.003,12.836 177.178,12.348 Q176.352,11.859 174.971,11.859 L172.882,11.859 L172.882,34.096 Q172.882,36.286 174.162,37.077 Q175.443,37.869 178.407,37.869 L178.407,50.369 L147.512,50.369 L147.512,37.869 Q150.477,37.869 151.741,37.077 Q153.004,36.286 153.004,34.096 L153.004,11.859 L150.949,11.859 Q149.568,11.859 148.742,12.348 Q147.917,12.836 147.496,13.864 Q147.074,14.892 146.973,16.559 Q146.872,18.227 146.872,20.484 L135.754,20.484 L135.754,0.741 z" fill="#000000"/>
    <path d="M131.176,18.766 L120.058,18.766 Q119.788,17.048 118.862,15.565 Q117.935,14.083 116.588,13.005 Q115.24,11.927 113.589,11.337 Q111.938,10.748 110.186,10.748 Q108.064,10.748 106.75,11.556 Q105.436,12.365 105.436,13.813 Q105.436,15.195 106.615,16.054 Q107.794,16.913 109.715,17.536 Q111.635,18.16 114.094,18.732 Q116.554,19.305 119.098,20.147 Q121.641,20.99 124.101,22.186 Q126.56,23.382 128.481,25.252 Q130.401,27.122 131.58,29.817 Q132.759,32.512 132.759,36.286 Q132.759,40.295 131.041,43.125 Q129.323,45.955 126.426,47.774 Q123.528,49.594 119.755,50.436 Q115.981,51.278 111.938,51.278 Q107.996,51.278 104.408,50.369 Q100.82,49.459 97.08,47.404 L97.08,50.369 L85.962,50.369 L85.962,32.007 L97.08,32.007 Q98.057,35.949 100.988,38.223 Q103.92,40.497 107.592,40.497 Q110.051,40.497 111.264,39.571 Q112.477,38.644 112.477,37.465 Q112.477,35.612 110.473,34.601 Q108.468,33.59 105.503,32.799 Q102.538,32.007 99.018,31.013 Q95.497,30.019 92.532,28.149 Q89.567,26.279 87.562,23.213 Q85.558,20.147 85.558,15.195 Q85.558,11.522 87.141,8.692 Q88.725,5.862 91.386,3.925 Q94.048,1.988 97.535,0.994 Q101.022,0 104.897,0 Q110.254,0 114.094,1.247 Q117.935,2.493 120.058,3.875 L120.058,0.741 L131.176,0.741 z" fill="#000000"/>
    <path d="M190.24,43.26 Q190.24,41.542 190.931,39.958 Q191.622,38.375 192.75,37.229 Q193.879,36.083 195.446,35.393 Q197.012,34.702 198.798,34.702 Q200.516,34.702 202.1,35.393 Q203.683,36.083 204.829,37.229 Q205.974,38.375 206.665,39.958 Q207.356,41.542 207.356,43.26 Q207.356,45.045 206.665,46.595 Q205.974,48.145 204.829,49.291 Q203.683,50.436 202.1,51.127 Q200.516,51.817 198.798,51.817 Q197.012,51.817 195.446,51.127 Q193.879,50.436 192.75,49.291 Q191.622,48.145 190.931,46.595 Q190.24,45.045 190.24,43.26 z" fill="#000000"/>
    <path d="M222.416,41.542 Q223.09,40.699 224.201,39.705 Q225.313,38.711 226.762,37.852 Q228.211,36.993 230.03,36.404 Q231.849,35.814 234.006,35.814 Q236.196,35.814 237.712,36.05 Q239.228,36.286 240.474,36.538 Q241.721,36.791 242.833,37.027 Q243.945,37.263 245.292,37.263 Q247.853,37.263 249.301,36.151 Q250.75,35.039 250.75,32.007 L257.387,32.007 Q257.387,38.442 256.175,42.232 Q254.962,46.022 252.856,47.993 Q250.75,49.964 247.853,50.503 Q244.955,51.042 241.654,51.042 Q239.026,51.042 236.583,50.537 Q234.14,50.032 231.9,49.442 Q229.659,48.853 227.621,48.33 Q225.583,47.808 223.797,47.808 Q222.247,47.808 221.354,48.229 Q220.462,48.65 219.923,49.122 Q219.282,49.695 218.946,50.369 L211.23,50.369 Q211.23,45.315 212.359,41.626 Q213.488,37.937 215.357,35.191 Q217.227,32.445 219.636,30.474 Q222.045,28.503 224.538,27.021 Q227.031,25.538 229.44,24.359 Q231.849,23.18 233.719,21.933 Q235.589,20.687 236.718,19.238 Q237.846,17.789 237.846,15.801 Q237.846,12.836 235.539,11.388 Q233.231,9.939 229.996,9.939 Q227.705,9.939 225.886,10.276 Q224.067,10.613 222.416,11.455 Q224.471,12.062 225.987,13.409 Q227.503,14.757 227.503,17.385 Q227.503,18.564 226.981,19.659 Q226.459,20.754 225.465,21.664 Q224.471,22.573 222.955,23.079 Q221.439,23.584 219.518,23.584 Q218.07,23.584 216.537,23.112 Q215.004,22.641 213.774,21.596 Q212.544,20.552 211.752,18.867 Q210.961,17.183 210.961,14.757 Q210.961,11.522 212.679,8.827 Q214.397,6.132 217.497,4.161 Q220.596,2.19 224.943,1.129 Q229.289,0.067 234.477,0.067 Q240.003,0.067 244.214,1.247 Q248.426,2.426 251.289,4.498 Q254.153,6.57 255.602,9.316 Q257.051,12.062 257.051,15.195 Q257.051,18.968 255.838,21.495 Q254.625,24.022 252.553,25.673 Q250.481,27.324 247.785,28.385 Q245.09,29.446 242.125,30.255 Q239.16,31.063 236.128,31.855 Q233.096,32.647 230.367,33.843 Q227.638,35.039 225.397,36.808 Q223.157,38.577 221.843,41.339 z" fill="#000000"/>
    <path d="M260.622,25.942 Q260.622,19.743 262.492,14.908 Q264.362,10.074 267.663,6.789 Q270.965,3.504 275.564,1.786 Q280.163,0.067 285.587,0.067 Q291.045,0.067 295.644,1.786 Q300.243,3.504 303.545,6.789 Q306.846,10.074 308.716,14.908 Q310.586,19.743 310.586,25.942 Q310.586,32.142 308.716,36.976 Q306.846,41.811 303.545,45.096 Q300.243,48.381 295.644,50.099 Q291.045,51.817 285.587,51.817 Q280.163,51.817 275.564,50.099 Q270.965,48.381 267.663,45.096 Q264.362,41.811 262.492,36.976 Q260.622,32.142 260.622,25.942 z M280.095,25.942 Q280.095,34.028 281.19,37.549 Q282.285,41.07 285.587,41.07 Q288.923,41.07 290.018,37.549 Q291.113,34.028 291.113,25.942 Q291.113,17.856 290.018,14.336 Q288.923,10.815 285.587,10.815 Q282.285,10.815 281.19,14.336 Q280.095,17.856 280.095,25.942 z" fill="#000000"/>
    <path d="M313.821,6.974 Q315.269,6.974 316.937,6.688 Q318.605,6.401 319.969,5.711 Q321.334,5.02 322.243,3.824 Q323.153,2.628 323.153,0.741 L338.752,0.741 L338.752,34.23 Q338.752,36.488 339.847,37.178 Q340.942,37.869 342.66,37.869 L344.951,37.869 L344.951,50.369 L314.528,50.369 L314.528,37.869 L317.223,37.869 Q319.009,37.869 319.868,36.74 Q320.727,35.612 320.727,34.298 L320.727,18.092 L313.821,18.092 z" fill="#000000"/>
    <path d="M358.293,41.542 Q358.967,40.699 360.079,39.705 Q361.191,38.711 362.639,37.852 Q364.088,36.993 365.907,36.404 Q367.727,35.814 369.883,35.814 Q372.073,35.814 373.589,36.05 Q375.105,36.286 376.352,36.538 Q377.598,36.791 378.71,37.027 Q379.822,37.263 381.17,37.263 Q383.73,37.263 385.179,36.151 Q386.628,35.039 386.628,32.007 L393.265,32.007 Q393.265,38.442 392.052,42.232 Q390.839,46.022 388.733,47.993 Q386.628,49.964 383.73,50.503 Q380.833,51.042 377.531,51.042 Q374.903,51.042 372.46,50.537 Q370.018,50.032 367.777,49.442 Q365.537,48.853 363.498,48.33 Q361.46,47.808 359.674,47.808 Q358.125,47.808 357.232,48.229 Q356.339,48.65 355.8,49.122 Q355.16,49.695 354.823,50.369 L347.108,50.369 Q347.108,45.315 348.236,41.626 Q349.365,37.937 351.235,35.191 Q353.105,32.445 355.514,30.474 Q357.923,28.503 360.416,27.021 Q362.909,25.538 365.318,24.359 Q367.727,23.18 369.597,21.933 Q371.466,20.687 372.595,19.238 Q373.724,17.789 373.724,15.801 Q373.724,12.836 371.416,11.388 Q369.108,9.939 365.874,9.939 Q363.583,9.939 361.763,10.276 Q359.944,10.613 358.293,11.455 Q360.348,12.062 361.864,13.409 Q363.381,14.757 363.381,17.385 Q363.381,18.564 362.858,19.659 Q362.336,20.754 361.342,21.664 Q360.348,22.573 358.832,23.079 Q357.316,23.584 355.396,23.584 Q353.947,23.584 352.414,23.112 Q350.881,22.641 349.651,21.596 Q348.422,20.552 347.63,18.867 Q346.838,17.183 346.838,14.757 Q346.838,11.522 348.556,8.827 Q350.275,6.132 353.374,4.161 Q356.474,2.19 360.82,1.129 Q365.166,0.067 370.355,0.067 Q375.88,0.067 380.091,1.247 Q384.303,2.426 387.167,4.498 Q390.03,6.57 391.479,9.316 Q392.928,12.062 392.928,15.195 Q392.928,18.968 391.715,21.495 Q390.502,24.022 388.43,25.673 Q386.358,27.324 383.663,28.385 Q380.967,29.446 378.003,30.255 Q375.038,31.063 372.006,31.855 Q368.973,32.647 366.244,33.843 Q363.515,35.039 361.275,36.808 Q359.034,38.577 357.72,41.339 z" fill="#000000"/>
    <path d="M0,24.311 Q0,22.593 0.691,21.009 Q1.381,19.426 2.51,18.28 Q3.639,17.135 5.205,16.444 Q6.772,15.753 8.558,15.753 Q10.276,15.753 11.859,16.444 Q13.443,17.135 14.588,18.28 Q15.734,19.426 16.425,21.009 Q17.115,22.593 17.115,24.311 Q17.115,26.097 16.425,27.646 Q15.734,29.196 14.588,30.342 Q13.443,31.487 11.859,32.178 Q10.276,32.869 8.558,32.869 Q6.772,32.869 5.205,32.178 Q3.639,31.487 2.51,30.342 Q1.381,29.196 0.691,27.646 Q0,26.097 0,24.311 z" fill="#000000"/>
    <path d="M403,24.311 Q403,22.593 403.691,21.009 Q404.381,19.426 405.51,18.28 Q406.639,17.135 408.205,16.444 Q409.772,15.753 411.558,15.753 Q413.276,15.753 414.859,16.444 Q416.443,17.135 417.588,18.28 Q418.734,19.426 419.425,21.009 Q420.115,22.593 420.115,24.311 Q420.115,26.097 419.425,27.646 Q418.734,29.196 417.588,30.342 Q416.443,31.487 414.859,32.178 Q413.276,32.869 411.558,32.869 Q409.772,32.869 408.205,32.178 Q406.639,31.487 405.51,30.342 Q404.381,29.196 403.691,27.646 Q403,26.097 403,24.311 z" fill="#000000"/>
  </g>
</svg>
